<?xml version="1.0" encoding="iso-8859-1"?>
<!-- Uploaded to: SVG Repo, www.svgrepo.com, Generator: SVG Repo Mixer Tools -->
<svg height="800px" width="800px" version="1.1" id="Layer_1" xmlns="http://www.w3.org/2000/svg" xmlns:xlink="http://www.w3.org/1999/xlink" 
	 viewBox="0 0 511.999 511.999" xml:space="preserve">
<path style="fill:#CCD8E5;" d="M503.665,66.8v316.343c0,17.909-14.509,32.429-32.417,32.429H40.754
	c-17.909,0-32.418-14.52-32.418-32.429V66.8c0-17.909,14.509-32.429,32.418-32.429h430.493
	C489.155,34.371,503.665,48.891,503.665,66.8z"/>
<path style="fill:#DFEAF4;" d="M503.665,66.8v316.343c0,17.909-14.509,32.429-32.417,32.429H183.344l23.752-57.925L339.655,34.371
	h131.592C489.155,34.371,503.665,48.891,503.665,66.8z"/>
<path style="fill:#B8E9F2;" d="M503.665,66.8v290.847H8.337V66.8c0-17.909,14.509-32.429,32.418-32.429h430.493
	C489.155,34.371,503.665,48.891,503.665,66.8z"/>
<path style="fill:#D4F7FC;" d="M503.665,66.8v290.847H207.097L339.655,34.371h131.592C489.155,34.371,503.665,48.891,503.665,66.8z"
	/>
<polygon style="fill:#CCD8E5;" points="343.454,480.173 168.547,480.173 181.034,450.955 196.165,415.571 315.836,415.571 
	330.967,450.955 "/>
<polygon style="fill:#BAC6D1;" points="330.967,450.955 181.034,450.955 196.165,415.571 315.836,415.571 "/>
<path style="fill:#9BB9D3;" d="M378.729,213.856v-35.684l-29.951-1.977c-2.444-11.498-6.977-22.219-13.176-31.762l19.786-22.574
	l-25.23-25.241l-4.299,3.766v0.011l-18.275,16.009c-0.411-0.267-0.833-0.533-1.244-0.789c-9.243-5.799-19.53-10.043-30.529-12.387
	l-1.977-29.94h-35.673l-1.977,29.94c-11.498,2.455-22.23,6.977-31.762,13.176l-22.586-19.786l-4.222,4.21l-21.019,21.03
	l19.797,22.574c-6.199,9.543-10.732,20.264-13.187,31.762l-29.929,1.977v35.684l29.929,1.966
	c2.455,11.509,6.988,22.23,13.187,31.762l-19.797,22.586l8.832,8.821l16.409,16.42l22.586-19.797
	c9.321,6.055,19.775,10.521,30.984,13.009c0.256,0.067,0.522,0.122,0.778,0.178l1.144,17.375l0.833,12.554h35.673l1.977-29.929
	c11.498-2.455,22.219-6.988,31.773-13.187l22.575,19.797l25.23-25.241l-19.786-22.586c6.199-9.532,10.732-20.253,13.176-31.762
	L378.729,213.856z M256.004,242.674c-0.589,0-1.167-0.011-1.744-0.033c-24.963-0.922-44.927-21.452-44.927-46.638
	c0-25.763,20.897-46.66,46.671-46.66c12.143,0,23.197,4.633,31.495,12.232c9.321,8.532,15.164,20.797,15.164,34.428
	C302.664,221.777,281.778,242.674,256.004,242.674z"/>
<path d="M256.002,249.729c-30.326,0-54.996-24.672-54.996-54.996s24.672-54.996,54.996-54.996s54.996,24.672,54.996,54.996
	S286.326,249.729,256.002,249.729z M256.002,156.4c-21.137,0-38.332,17.196-38.332,38.332s17.196,38.332,38.332,38.332
	s38.332-17.196,38.332-38.332S277.137,156.4,256.002,156.4z"/>
<path d="M273.836,325.788h-35.679c-4.389,0-8.027-3.405-8.314-7.786l-1.572-23.847c-8.018-2.232-15.699-5.419-22.95-9.525
	l-17.991,15.769c-3.303,2.894-8.283,2.728-11.385-0.376l-25.233-25.233c-3.106-3.103-3.272-8.084-0.378-11.387l15.768-17.991
	c-4.105-7.25-7.292-14.931-9.525-22.949l-23.848-1.573c-4.379-0.289-7.783-3.925-7.783-8.314v-35.679
	c0-4.389,3.404-8.025,7.784-8.314l23.848-1.572c2.232-8.017,5.42-15.7,9.526-22.957l-15.768-17.983
	c-2.894-3.301-2.731-8.279,0.371-11.384l25.246-25.246c3.104-3.096,8.078-3.258,11.375-0.369l17.994,15.763
	c7.253-4.103,14.933-7.288,22.948-9.519l1.572-23.858c0.289-4.379,3.925-7.784,8.314-7.784h35.679c4.389,0,8.025,3.405,8.314,7.784
	l1.572,23.858c8.013,2.231,15.695,5.416,22.956,9.52l13.432-11.767c0.084-0.081,0.171-0.16,0.259-0.237l4.297-3.763
	c3.301-2.891,8.278-2.726,11.381,0.377l25.237,25.239c3.104,3.103,3.267,8.082,0.374,11.384l-15.763,17.986
	c4.104,7.26,7.29,14.942,9.52,22.954l23.858,1.573c4.379,0.289,7.784,3.925,7.784,8.314v35.679c0,4.389-3.404,8.025-7.784,8.314
	l-23.858,1.573c-2.23,8.013-5.416,15.693-9.519,22.948l15.763,17.994c2.892,3.301,2.727,8.279-0.376,11.382l-25.237,25.239
	c-3.104,3.104-8.083,3.267-11.385,0.373l-17.983-15.768c-7.256,4.106-14.939,7.295-22.956,9.525l-1.572,23.849
	C281.861,322.384,278.225,325.788,273.836,325.788z M245.959,309.123h20.076l1.46-22.15c0.246-3.719,2.932-6.825,6.578-7.601
	c10.332-2.201,20.078-6.246,28.967-12.02c3.13-2.032,7.227-1.738,10.033,0.722l16.706,14.649l14.206-14.205l-14.645-16.716
	c-2.456-2.805-2.752-6.901-0.72-10.029c5.77-8.886,9.812-18.63,12.012-28.959c0.777-3.646,3.882-6.332,7.601-6.578l22.159-1.461
	v-20.077l-22.159-1.461c-3.721-0.246-6.825-2.932-7.601-6.578c-2.199-10.325-6.241-20.074-12.014-28.972
	c-2.029-3.127-1.733-7.222,0.723-10.026l14.642-16.706l-14.202-14.202l-16.712,14.64c-2.802,2.456-6.897,2.752-10.024,0.723
	c-8.899-5.772-18.646-9.814-28.972-12.014c-3.646-0.777-6.334-3.882-6.578-7.601l-1.46-22.159h-20.077l-1.46,22.159
	c-0.246,3.721-2.932,6.825-6.578,7.601c-10.33,2.201-20.073,6.241-28.959,12.012c-3.126,2.031-7.222,1.736-10.027-0.721
	l-16.722-14.649l-14.201,14.208l14.65,16.709c2.46,2.805,2.754,6.903,0.722,10.033c-5.775,8.889-9.819,18.635-12.02,28.968
	c-0.777,3.646-3.882,6.332-7.601,6.578l-22.149,1.46v20.077l22.15,1.461c3.719,0.246,6.825,2.932,7.601,6.578
	c2.202,10.336,6.246,20.078,12.018,28.955c2.035,3.128,1.741,7.228-0.719,10.034l-14.648,16.713l14.203,14.207l16.714-14.65
	c2.806-2.46,6.907-2.753,10.034-0.719c8.878,5.774,18.62,9.816,28.955,12.018c3.646,0.777,6.332,3.881,6.578,7.6L245.959,309.123z
	 M325.857,99.113h0.011H325.857z"/>
<path d="M471.246,24.766H40.754C18.283,24.766,0,43.049,0,65.52v59.227c0,4.602,3.731,8.332,8.332,8.332s8.332-3.731,8.332-8.332
	V65.52c0-13.284,10.807-24.09,24.09-24.09h430.492c13.284,0,24.09,10.807,24.09,24.09v284.411h-52.21
	c-4.602,0-8.332,3.731-8.332,8.332s3.731,8.332,8.332,8.332h52.21v15.273c0,13.284-10.807,24.09-24.09,24.09h-155.41H196.164H40.754
	c-13.284,0-24.09-10.807-24.09-24.09v-15.273h398.688c4.602,0,8.332-3.731,8.332-8.332s-3.731-8.332-8.332-8.332H16.664V152.522
	c0-4.602-3.731-8.332-8.332-8.332S0,147.92,0,152.522v229.348c0,22.472,18.283,40.754,40.754,40.754H183.54l-20.494,47.945h-40.034
	c-4.602,0-8.332,3.731-8.332,8.332s3.731,8.332,8.332,8.332h265.975c4.602,0,8.332-3.731,8.332-8.332s-3.731-8.332-8.332-8.332
	h-40.034l-20.494-47.945h142.786c22.472,0,40.754-18.282,40.754-40.754V65.52C512,43.049,493.717,24.766,471.246,24.766z
	 M330.83,470.568H181.17l14.238-33.31h121.185L330.83,470.568z"/>
<path d="M253.972,376.221c-3.517,0.879-6.116,4.048-6.291,7.67c-0.364,7.534,9.106,11.629,14.33,6.172
	c2.663-2.782,3.078-7.177,0.913-10.385C261.01,376.772,257.341,375.379,253.972,376.221z"/>
</svg>