<?xml version="1.0" encoding="iso-8859-1"?>
<!-- Uploaded to: SVG Repo, www.svgrepo.com, Generator: SVG Repo Mixer Tools -->
<svg version="1.1" id="Layer_1" xmlns="http://www.w3.org/2000/svg" xmlns:xlink="http://www.w3.org/1999/xlink" 
	 viewBox="0 0 511.999 511.999" xml:space="preserve">
<path style="fill:#CCD8E5;" d="M503.665,66.8v316.343c0,17.909-14.509,32.429-32.417,32.429H40.754
	c-17.909,0-32.418-14.52-32.418-32.429V66.8c0-17.909,14.509-32.429,32.418-32.429h430.493
	C489.155,34.371,503.665,48.891,503.665,66.8z"/>
<path style="fill:#DFEAF4;" d="M503.665,66.8v316.343c0,17.909-14.509,32.429-32.417,32.429H183.344l23.752-57.925L339.655,34.371
	h131.592C489.155,34.371,503.665,48.891,503.665,66.8z"/>
<path style="fill:#B8E9F2;" d="M503.665,66.8v290.847H8.337V66.8c0-17.909,14.509-32.429,32.418-32.429h430.493
	C489.155,34.371,503.665,48.891,503.665,66.8z"/>
<path style="fill:#D4F7FC;" d="M503.665,66.8v290.847H207.097L339.655,34.371h131.592C489.155,34.371,503.665,48.891,503.665,66.8z"
	/>
<polygon style="fill:#CCD8E5;" points="343.454,480.173 168.547,480.173 181.034,450.955 196.165,415.571 315.836,415.571 
	330.967,450.955 "/>
<polygon style="fill:#BAC6D1;" points="330.967,450.955 181.034,450.955 196.165,415.571 315.836,415.571 "/>
<g>
	<rect x="86.032" y="70.745" style="fill:#E8C262;" width="44.158" height="44.158"/>
	<rect x="381.811" y="70.745" style="fill:#E8C262;" width="44.158" height="44.158"/>
	<rect x="86.032" y="274.871" style="fill:#E8C262;" width="44.158" height="44.158"/>
	<rect x="381.811" y="274.871" style="fill:#E8C262;" width="44.158" height="44.158"/>
</g>
<rect x="158.177" y="134.069" style="fill:#F75757;" width="68.323" height="121.649"/>
<path d="M130.192,61.138H86.034c-4.602,0-8.332,3.731-8.332,8.332v44.158c0,4.602,3.731,8.332,8.332,8.332h44.158
	c4.602,0,8.332-3.731,8.332-8.332V69.47C138.524,64.869,134.794,61.138,130.192,61.138z M121.86,105.296H94.366V77.803h27.494
	V105.296z"/>
<path d="M425.968,61.138H381.81c-4.602,0-8.332,3.731-8.332,8.332v44.158c0,4.602,3.731,8.332,8.332,8.332h44.158
	c4.602,0,8.332-3.731,8.332-8.332V69.47C434.3,64.869,430.57,61.138,425.968,61.138z M417.636,105.296h-27.494V77.803h27.494
	V105.296z"/>
<path d="M130.192,265.265H86.034c-4.602,0-8.332,3.731-8.332,8.332v44.158c0,4.602,3.731,8.332,8.332,8.332h44.158
	c4.602,0,8.332-3.731,8.332-8.332v-44.158C138.524,268.996,134.794,265.265,130.192,265.265z M121.86,309.423H94.366V281.93h27.494
	V309.423z"/>
<path d="M425.968,265.265H381.81c-4.602,0-8.332,3.731-8.332,8.332v44.158c0,4.602,3.731,8.332,8.332,8.332h44.158
	c4.602,0,8.332-3.731,8.332-8.332v-44.158C434.3,268.996,430.57,265.265,425.968,265.265z M417.636,309.423h-27.494V281.93h27.494
	V309.423z"/>
<path d="M158.064,99.883h43.305c4.602,0,8.332-3.731,8.332-8.332c0-4.602-3.731-8.332-8.332-8.332h-43.305
	c-4.602,0-8.332,3.731-8.332,8.332C149.732,96.152,153.462,99.883,158.064,99.883z"/>
<path d="M353.934,83.218H229.141c-4.602,0-8.332,3.731-8.332,8.332c0,4.602,3.731,8.332,8.332,8.332h124.793
	c4.602,0,8.332-3.731,8.332-8.332C362.266,86.949,358.536,83.218,353.934,83.218z"/>
<path d="M353.934,287.343H158.063c-4.602,0-8.332,3.731-8.332,8.332c0,4.602,3.731,8.332,8.332,8.332h195.872
	c4.602,0,8.332-3.731,8.332-8.332C362.266,291.074,358.536,287.343,353.934,287.343z"/>
<path d="M412.227,246.839V140.388c0-4.602-3.731-8.332-8.332-8.332c-4.602,0-8.332,3.731-8.332,8.332v106.451
	c0,4.602,3.731,8.332,8.332,8.332C408.496,255.171,412.227,251.441,412.227,246.839z"/>
<path d="M116.446,246.839V140.388c0-4.602-3.731-8.332-8.332-8.332c-4.602,0-8.332,3.731-8.332,8.332v106.451
	c0,4.602,3.731,8.332,8.332,8.332C112.716,255.171,116.446,251.441,116.446,246.839z"/>
<path d="M149.843,132.791v121.643c0,4.602,3.731,8.332,8.332,8.332h68.32c4.602,0,8.332-3.731,8.332-8.332V132.791
	c0-4.602-3.731-8.332-8.332-8.332h-68.32C153.573,124.459,149.843,128.19,149.843,132.791z M201.892,193.614l16.272-28.971v57.943
	L201.892,193.614z M212.259,246.103H172.41l19.924-35.475L212.259,246.103z M192.335,176.598l-19.924-35.475h39.849L192.335,176.598
	z M182.779,193.614l-16.272,28.971v-57.943L182.779,193.614z"/>
<path d="M268.154,141.123h79.985c4.602,0,8.332-3.731,8.332-8.332c0-4.602-3.731-8.332-8.332-8.332h-79.985
	c-4.602,0-8.332,3.731-8.332,8.332C259.822,137.393,263.552,141.123,268.154,141.123z"/>
<path d="M268.154,222.219h79.985c4.602,0,8.332-3.731,8.332-8.332c0-4.602-3.731-8.332-8.332-8.332h-79.985
	c-4.602,0-8.332,3.731-8.332,8.332C259.822,218.489,263.552,222.219,268.154,222.219z"/>
<path d="M268.154,181.671h79.985c4.602,0,8.332-3.731,8.332-8.332c0-4.602-3.731-8.332-8.332-8.332h-79.985
	c-4.602,0-8.332,3.731-8.332,8.332C259.822,177.94,263.552,181.671,268.154,181.671z"/>
<path d="M268.154,262.767h79.985c4.602,0,8.332-3.731,8.332-8.332c0-4.602-3.731-8.332-8.332-8.332h-79.985
	c-4.602,0-8.332,3.731-8.332,8.332C259.822,259.036,263.552,262.767,268.154,262.767z"/>
<path d="M471.246,24.766H40.754C18.283,24.766,0,43.049,0,65.52v59.227c0,4.602,3.731,8.332,8.332,8.332s8.332-3.731,8.332-8.332
	V65.52c0-13.284,10.807-24.09,24.09-24.09h430.492c13.284,0,24.09,10.807,24.09,24.09v284.411h-52.21
	c-4.602,0-8.332,3.731-8.332,8.332s3.731,8.332,8.332,8.332h52.21v15.273c0,13.284-10.807,24.09-24.09,24.09h-155.41H196.164H40.754
	c-13.284,0-24.09-10.807-24.09-24.09v-15.273h398.688c4.602,0,8.332-3.731,8.332-8.332s-3.731-8.332-8.332-8.332H16.664V152.522
	c0-4.602-3.731-8.332-8.332-8.332S0,147.92,0,152.522v229.348c0,22.472,18.283,40.754,40.754,40.754H183.54l-20.494,47.945h-40.034
	c-4.602,0-8.332,3.731-8.332,8.332s3.731,8.332,8.332,8.332h265.975c4.602,0,8.332-3.731,8.332-8.332s-3.731-8.332-8.332-8.332
	h-40.034l-20.494-47.945h142.786c22.472,0,40.754-18.282,40.754-40.754V65.52C512,43.049,493.717,24.766,471.246,24.766z
	 M330.83,470.568H181.17l14.238-33.31h121.185L330.83,470.568z"/>
<path d="M253.972,376.221c-3.517,0.879-6.116,4.048-6.291,7.67c-0.364,7.534,9.106,11.629,14.33,6.172
	c2.663-2.782,3.078-7.177,0.913-10.385C261.01,376.772,257.341,375.379,253.972,376.221z"/>
</svg>