<?xml version="1.0" encoding="iso-8859-1"?>
<!-- Uploaded to: SVG Repo, www.svgrepo.com, Generator: SVG Repo Mixer Tools -->
<svg version="1.1" id="Layer_1" xmlns="http://www.w3.org/2000/svg" xmlns:xlink="http://www.w3.org/1999/xlink" 
	 viewBox="0 0 511.999 511.999" xml:space="preserve">
<path style="fill:#CCD8E5;" d="M503.665,66.8v316.343c0,17.909-14.509,32.429-32.417,32.429H40.754
	c-17.909,0-32.418-14.52-32.418-32.429V66.8c0-17.909,14.509-32.429,32.418-32.429h430.493
	C489.155,34.371,503.665,48.891,503.665,66.8z"/>
<path style="fill:#DFEAF4;" d="M503.665,66.8v316.343c0,17.909-14.509,32.429-32.417,32.429H183.344l23.752-57.925L339.655,34.371
	h131.592C489.155,34.371,503.665,48.891,503.665,66.8z"/>
<path style="fill:#B8E9F2;" d="M503.665,66.8v290.847H8.337V66.8c0-17.909,14.509-32.429,32.418-32.429h430.493
	C489.155,34.371,503.665,48.891,503.665,66.8z"/>
<path style="fill:#D4F7FC;" d="M503.665,66.8v290.847H207.097L339.655,34.371h131.592C489.155,34.371,503.665,48.891,503.665,66.8z"
	/>
<polygon style="fill:#CCD8E5;" points="343.454,480.173 168.547,480.173 181.034,450.955 196.165,415.571 315.836,415.571 
	330.967,450.955 "/>
<polygon style="fill:#BAC6D1;" points="330.967,450.955 181.034,450.955 196.165,415.571 315.836,415.571 "/>
<g>
	<rect x="46.587" y="104.495" style="fill:#FFFFFF;" width="121.093" height="199.971"/>
	<rect x="195.449" y="104.495" style="fill:#FFFFFF;" width="121.093" height="199.971"/>
	<rect x="344.317" y="104.495" style="fill:#FFFFFF;" width="121.093" height="199.971"/>
</g>
<circle style="fill:#E8C262;" cx="107.129" cy="166.709" r="24.996"/>
<circle style="fill:#F75757;" cx="255.996" cy="166.709" r="24.996"/>
<circle style="fill:#609DC6;" cx="404.863" cy="166.709" r="24.996"/>
<path d="M167.681,311.526H46.588c-4.602,0-8.332-3.731-8.332-8.332V103.223c0-4.602,3.731-8.332,8.332-8.332h121.094
	c4.602,0,8.332,3.731,8.332,8.332v199.971C176.013,307.796,172.283,311.526,167.681,311.526z M54.92,294.862h104.429V111.555H54.92
	C54.92,111.555,54.92,294.862,54.92,294.862z"/>
<path d="M316.548,311.526H195.455c-4.602,0-8.332-3.731-8.332-8.332V103.223c0-4.602,3.731-8.332,8.332-8.332h121.094
	c4.602,0,8.332,3.731,8.332,8.332v199.971C324.881,307.796,321.15,311.526,316.548,311.526z M203.787,294.862h104.429V111.555
	H203.787V294.862z"/>
<path d="M465.416,311.526H344.322c-4.602,0-8.332-3.731-8.332-8.332V103.223c0-4.602,3.731-8.332,8.332-8.332h121.093
	c4.602,0,8.332,3.731,8.332,8.332v199.971C473.748,307.796,470.017,311.526,465.416,311.526z M352.654,294.862h104.429V111.555
	H352.654V294.862z"/>
<path d="M107.134,198.765c-18.377,0-33.328-14.951-33.328-33.328s14.951-33.328,33.328-33.328s33.328,14.951,33.328,33.328
	S125.512,198.765,107.134,198.765z M107.134,148.772c-9.189,0-16.664,7.476-16.664,16.664s7.476,16.664,16.664,16.664
	s16.664-7.476,16.664-16.664S116.323,148.772,107.134,148.772z"/>
<path d="M132.131,230.427H82.138c-4.602,0-8.332-3.731-8.332-8.332s3.731-8.332,8.332-8.332h49.993c4.602,0,8.332,3.731,8.332,8.332
	S136.732,230.427,132.131,230.427z"/>
<path d="M132.131,259.312H82.138c-4.602,0-8.332-3.731-8.332-8.332c0-4.602,3.731-8.332,8.332-8.332h49.993
	c4.602,0,8.332,3.731,8.332,8.332C140.463,255.581,136.732,259.312,132.131,259.312z"/>
<path d="M256.002,198.765c-18.377,0-33.328-14.951-33.328-33.328s14.951-33.328,33.328-33.328s33.328,14.951,33.328,33.328
	S274.379,198.765,256.002,198.765z M256.002,148.772c-9.189,0-16.664,7.476-16.664,16.664s7.476,16.664,16.664,16.664
	s16.664-7.476,16.664-16.664S265.19,148.772,256.002,148.772z"/>
<path d="M280.998,230.427h-49.993c-4.602,0-8.332-3.731-8.332-8.332s3.731-8.332,8.332-8.332h49.993
	c4.602,0,8.332,3.731,8.332,8.332S285.6,230.427,280.998,230.427z"/>
<path d="M280.998,259.312h-49.993c-4.602,0-8.332-3.731-8.332-8.332c0-4.602,3.731-8.332,8.332-8.332h49.993
	c4.602,0,8.332,3.731,8.332,8.332C289.33,255.581,285.6,259.312,280.998,259.312z"/>
<path d="M404.869,198.765c-18.377,0-33.328-14.951-33.328-33.328s14.951-33.328,33.328-33.328s33.328,14.951,33.328,33.328
	S423.246,198.765,404.869,198.765z M404.869,148.772c-9.189,0-16.664,7.476-16.664,16.664s7.476,16.664,16.664,16.664
	s16.664-7.476,16.664-16.664S414.058,148.772,404.869,148.772z"/>
<path d="M429.865,230.427h-49.993c-4.602,0-8.332-3.731-8.332-8.332s3.731-8.332,8.332-8.332h49.993
	c4.602,0,8.332,3.731,8.332,8.332S434.467,230.427,429.865,230.427z"/>
<path d="M429.865,259.312h-49.993c-4.602,0-8.332-3.731-8.332-8.332c0-4.602,3.731-8.332,8.332-8.332h49.993
	c4.602,0,8.332,3.731,8.332,8.332C438.197,255.581,434.467,259.312,429.865,259.312z"/>
<path d="M471.246,24.766H40.754C18.283,24.766,0,43.049,0,65.52v59.227c0,4.602,3.731,8.332,8.332,8.332s8.332-3.731,8.332-8.332
	V65.52c0-13.284,10.807-24.09,24.09-24.09h430.492c13.284,0,24.09,10.807,24.09,24.09v284.411h-52.21
	c-4.602,0-8.332,3.731-8.332,8.332s3.731,8.332,8.332,8.332h52.21v15.273c0,13.284-10.807,24.09-24.09,24.09h-155.41H196.164H40.754
	c-13.284,0-24.09-10.807-24.09-24.09v-15.273h398.688c4.602,0,8.332-3.731,8.332-8.332s-3.731-8.332-8.332-8.332H16.664V152.522
	c0-4.602-3.731-8.332-8.332-8.332S0,147.92,0,152.522v229.348c0,22.472,18.283,40.754,40.754,40.754H183.54l-20.494,47.945h-40.034
	c-4.602,0-8.332,3.731-8.332,8.332s3.731,8.332,8.332,8.332h265.975c4.602,0,8.332-3.731,8.332-8.332s-3.731-8.332-8.332-8.332
	h-40.034l-20.494-47.945h142.786c22.472,0,40.754-18.282,40.754-40.754V65.52C512,43.049,493.717,24.766,471.246,24.766z
	 M330.83,470.568H181.17l14.238-33.31h121.185L330.83,470.568z"/>
<path d="M253.972,376.221c-3.517,0.879-6.116,4.048-6.291,7.67c-0.364,7.534,9.106,11.629,14.33,6.172
	c2.663-2.782,3.078-7.177,0.913-10.385C261.01,376.772,257.341,375.379,253.972,376.221z"/>
</svg>