<?xml version="1.0" encoding="iso-8859-1"?>
<!-- Uploaded to: SVG Repo, www.svgrepo.com, Generator: SVG Repo Mixer Tools -->
<svg height="800px" width="800px" version="1.1" id="Layer_1" xmlns="http://www.w3.org/2000/svg" xmlns:xlink="http://www.w3.org/1999/xlink" 
	 viewBox="0 0 511.999 511.999" xml:space="preserve">
<path style="fill:#CCD8E5;" d="M503.665,66.8v316.343c0,17.909-14.509,32.429-32.417,32.429H40.754
	c-17.909,0-32.418-14.52-32.418-32.429V66.8c0-17.909,14.509-32.429,32.418-32.429h430.493
	C489.155,34.371,503.665,48.891,503.665,66.8z"/>
<path style="fill:#DFEAF4;" d="M503.665,66.8v316.343c0,17.909-14.509,32.429-32.417,32.429H183.344l23.752-57.925L339.655,34.371
	h131.592C489.155,34.371,503.665,48.891,503.665,66.8z"/>
<path style="fill:#B8E9F2;" d="M503.665,66.8v290.847H8.337V66.8c0-17.909,14.509-32.429,32.418-32.429h430.493
	C489.155,34.371,503.665,48.891,503.665,66.8z"/>
<path style="fill:#D4F7FC;" d="M503.665,66.8v290.847H207.097L339.655,34.371h131.592C489.155,34.371,503.665,48.891,503.665,66.8z"
	/>
<polygon style="fill:#CCD8E5;" points="343.454,480.173 168.547,480.173 181.034,450.955 196.165,415.571 315.836,415.571 
	330.967,450.955 "/>
<polygon style="fill:#BAC6D1;" points="330.967,450.955 181.034,450.955 196.165,415.571 315.836,415.571 "/>
<path style="fill:#F75757;" d="M258.839,284.174l-53.805,23.069l2.842-58.474L312.605,98.015c6.687-9.625,19.909-12.007,29.533-5.32
	l16.11,11.192c9.625,6.687,12.007,19.909,5.32,29.533L258.839,284.174z"/>
<polyline style="fill:#E8C262;" points="258.839,284.174 205.034,307.243 207.875,248.769 "/>
<path d="M265.681,287.651l104.487-150.405c9.431-13.575,6.059-32.292-7.517-41.723l-15.411-10.706
	c-13.575-9.43-32.29-6.059-41.723,7.517l-35.546,51.167c-2.625,3.779-1.69,8.971,2.089,11.596c3.779,2.625,8.972,1.69,11.597-2.089
	l15.408-22.179l37.278,25.896l-79.594,114.573l-37.278-25.897l49.074-70.641c2.625-3.779,1.69-8.971-2.09-11.596
	c-3.779-2.626-8.972-1.69-11.596,2.089l-53.828,77.483c-0.891,1.283-1.403,2.79-1.48,4.349l-2.842,58.474
	c-0.139,2.87,1.209,5.608,3.568,7.247c1.418,0.985,3.08,1.49,4.754,1.49c1.112,0,2.229-0.222,3.283-0.674l53.805-23.069
	C263.557,289.94,264.79,288.933,265.681,287.651z M308.574,117.144l10.631-15.302c4.188-6.029,12.5-7.526,18.53-3.338l15.411,10.706
	c6.029,4.188,7.526,12.5,3.337,18.53l-10.631,15.302L308.574,117.144z M215.468,262.912l26.271,18.251l-27.736,11.892
	L215.468,262.912z"/>
<path d="M398.884,134.158h32.627c4.602,0,8.332-3.731,8.332-8.332c0-4.602-3.731-8.332-8.332-8.332h-32.627
	c-4.602,0-8.332,3.731-8.332,8.332C390.552,130.427,394.283,134.158,398.884,134.158z"/>
<path d="M80.484,134.158h180.74c4.602,0,8.332-3.731,8.332-8.332c0-4.602-3.731-8.332-8.332-8.332H80.484
	c-4.602,0-8.332,3.731-8.332,8.332C72.152,130.427,75.882,134.158,80.484,134.158z"/>
<path d="M431.512,177.54h-69.287c-4.602,0-8.332,3.731-8.332,8.332s3.731,8.332,8.332,8.332h69.287c4.602,0,8.332-3.731,8.332-8.332
	S436.113,177.54,431.512,177.54z"/>
<path d="M80.484,194.205h139.024c4.602,0,8.332-3.731,8.332-8.332s-3.731-8.332-8.332-8.332H80.484
	c-4.602,0-8.332,3.731-8.332,8.332S75.882,194.205,80.484,194.205z"/>
<path d="M431.512,237.587H320.567c-4.602,0-8.332,3.731-8.332,8.332c0,4.602,3.731,8.332,8.332,8.332h110.945
	c4.602,0,8.332-3.731,8.332-8.332C439.844,241.318,436.113,237.587,431.512,237.587z"/>
<path d="M182.815,237.587H80.484c-4.602,0-8.332,3.731-8.332,8.332c0,4.602,3.731,8.332,8.332,8.332h102.331
	c4.602,0,8.332-3.731,8.332-8.332C191.147,241.318,187.416,237.587,182.815,237.587z"/>
<path d="M431.514,297.634H267.243c-4.602,0-8.332,3.731-8.332,8.332s3.731,8.332,8.332,8.332h164.271
	c4.602,0,8.332-3.731,8.332-8.332S436.117,297.634,431.514,297.634z"/>
<path d="M177.26,297.634H80.488c-4.602,0-8.332,3.731-8.332,8.332s3.731,8.332,8.332,8.332h96.771c4.602,0,8.332-3.731,8.332-8.332
	S181.861,297.634,177.26,297.634z"/>
<path d="M471.246,24.766H40.754C18.283,24.766,0,43.049,0,65.52v59.227c0,4.602,3.731,8.332,8.332,8.332s8.332-3.731,8.332-8.332
	V65.52c0-13.284,10.807-24.09,24.09-24.09h430.492c13.284,0,24.09,10.807,24.09,24.09v284.411h-52.21
	c-4.602,0-8.332,3.731-8.332,8.332s3.731,8.332,8.332,8.332h52.21v15.273c0,13.284-10.807,24.09-24.09,24.09h-155.41H196.164H40.754
	c-13.284,0-24.09-10.807-24.09-24.09v-15.273h398.688c4.602,0,8.332-3.731,8.332-8.332s-3.731-8.332-8.332-8.332H16.664V152.522
	c0-4.602-3.731-8.332-8.332-8.332S0,147.92,0,152.522v229.348c0,22.472,18.283,40.754,40.754,40.754H183.54l-20.494,47.945h-40.034
	c-4.602,0-8.332,3.731-8.332,8.332s3.731,8.332,8.332,8.332h265.975c4.602,0,8.332-3.731,8.332-8.332s-3.731-8.332-8.332-8.332
	h-40.034l-20.494-47.945h142.786c22.472,0,40.754-18.282,40.754-40.754V65.52C512,43.049,493.717,24.766,471.246,24.766z
	 M330.83,470.568H181.17l14.238-33.31h121.185L330.83,470.568z"/>
<path d="M253.972,376.221c-3.517,0.879-6.116,4.048-6.291,7.67c-0.364,7.534,9.106,11.629,14.33,6.172
	c2.663-2.782,3.078-7.177,0.913-10.385C261.01,376.772,257.341,375.379,253.972,376.221z"/>
</svg>